<svg width="38" height="36" viewBox="0 0 38 36" fill="none" xmlns="http://www.w3.org/2000/svg">
<g clip-path="url(#clip0_4359_2360)">
<path d="M21.9732 35.56C21.4115 35.8114 20.8359 35.8027 20.2827 35.5337L3.81614 27.5608C2.55314 26.9498 2.48049 25.1225 3.63451 24.3799L8.10531 21.5001C8.30091 21.3743 8.41548 21.1755 8.43224 20.9358C8.44901 20.6961 8.36239 20.4826 8.18914 20.3277L0.840262 13.8634C-0.55407 12.6355 0.580396 10.355 2.37151 10.7205L25.181 15.3954V3.34408C25.181 2.26232 25.9215 1.3589 26.9414 1.19518L32.5662 0.288839C33.329 0.166046 34.0443 0.464259 34.5194 1.10162L37.4142 4.98718C37.7383 5.4228 37.8445 5.96368 37.7439 6.46655C37.5539 7.44306 36.942 7.91085 36.0003 7.91085H32.7618C32.4572 7.91085 32.1973 8.10673 32.1051 8.4108L31.7559 9.53056C31.6944 9.72352 31.7111 9.91356 31.8034 10.0948L37.1376 20.547C37.4589 21.1755 37.4729 21.8626 37.1767 22.5058L33.941 29.5957C33.7146 30.0898 33.3681 30.4407 32.8875 30.657L21.9732 35.56Z" fill="#262626"/>
<path fill-rule="evenodd" clip-rule="evenodd" d="M19.7958 33.6947L4.39945 26.2481C4.2262 26.1633 4.15076 25.9499 4.23179 25.7686C4.25974 25.7014 4.30724 25.6487 4.36312 25.6107L8.89819 22.69C9.02673 22.6081 9.1832 22.6227 9.29497 22.7163L20.7095 31.6247C20.8436 31.73 20.8827 31.9171 20.8129 32.072L20.2596 33.5017C20.1898 33.6859 19.9886 33.7765 19.8125 33.7035L19.7958 33.6947Z" fill="#FFC524"/>
<path fill-rule="evenodd" clip-rule="evenodd" d="M32.9356 2.2474L31.0076 7.25565C30.9824 7.32289 30.9349 7.38429 30.8707 7.42815C30.7114 7.5334 30.4962 7.4837 30.3956 7.31412L27.8138 3.03972C27.7886 2.99879 27.7718 2.95201 27.7663 2.90231C27.7355 2.7035 27.8641 2.51931 28.0541 2.49007C28.6017 2.39944 29.1019 2.32634 29.5993 2.25325C30.5717 2.11292 31.5441 1.97258 32.536 1.76207C32.6031 1.74453 32.6758 1.74746 32.7456 1.77669C32.9217 1.85271 33.0083 2.06029 32.9356 2.2474Z" fill="white"/>
<path fill-rule="evenodd" clip-rule="evenodd" d="M36.0528 6.46387H33.035C32.845 6.46387 32.6885 6.30014 32.6885 6.10133C32.6885 6.04286 32.7024 5.99023 32.7248 5.94053L33.7419 3.29753C33.8118 3.11334 34.013 3.02271 34.1918 3.09872C34.2533 3.12504 34.3063 3.16889 34.3427 3.22444L36.3238 5.87913C36.4412 6.03701 36.4132 6.26213 36.2651 6.38493C36.2009 6.43755 36.1254 6.46094 36.0528 6.46094V6.46387Z" fill="white"/>
<path fill-rule="evenodd" clip-rule="evenodd" d="M27.2156 4.18864L34.4472 18.3363C34.5031 18.4269 34.5142 18.5468 34.4751 18.655C34.4053 18.8421 34.2041 18.9327 34.028 18.8596L26.8077 15.8892C26.668 15.8424 26.5674 15.7079 26.5674 15.5442V4.35822C26.5674 4.22958 26.6344 4.10678 26.749 4.03954C26.9167 3.94598 27.1262 4.01322 27.2156 4.18864Z" fill="#00CCFF"/>
<path fill-rule="evenodd" clip-rule="evenodd" d="M21.0269 30.2918L10.867 21.4536C10.7217 21.3249 10.7021 21.0969 10.8251 20.9448C10.8977 20.8542 11.0039 20.8103 11.1073 20.8162L24.3744 21.5179C24.6091 21.5325 24.7628 21.7868 24.6762 22.012L21.5969 30.169C21.5019 30.4146 21.2001 30.476 21.0269 30.2918Z" fill="#FC3564"/>
<path fill-rule="evenodd" clip-rule="evenodd" d="M35.875 21.9967L33.4971 27.2008C33.4776 27.2476 33.4496 27.2915 33.4133 27.3266C33.2736 27.464 33.0556 27.4581 32.9243 27.3119L26.6764 20.3945C26.6093 20.3273 26.5674 20.2337 26.5674 20.1285V17.6843C26.5674 17.6346 26.5786 17.582 26.5981 17.5323C26.6792 17.351 26.8831 17.2721 27.0564 17.3568L35.7102 21.5172C35.8834 21.602 35.9561 21.8184 35.875 21.9967Z" fill="white"/>
<path fill-rule="evenodd" clip-rule="evenodd" d="M22.2527 33.1917L25.8349 22.0584C25.8516 21.9911 25.8936 21.9239 25.9494 21.8771C26.1003 21.7514 26.3183 21.7777 26.4356 21.9356L31.8565 29.0459C31.8733 29.0722 31.89 29.0986 31.904 29.1307C31.9766 29.312 31.8956 29.5254 31.7196 29.6043L22.7165 33.639C22.6411 33.6712 22.5544 33.677 22.4706 33.6478C22.289 33.5864 22.194 33.3817 22.2527 33.1917Z" fill="white"/>
<path fill-rule="evenodd" clip-rule="evenodd" d="M8.5091 18.7196L1.73305 12.7553C1.58774 12.6267 1.57098 12.4016 1.69113 12.2495C1.77496 12.1443 1.90349 12.1034 2.02085 12.1267L25.0986 16.8543C25.2634 16.8865 25.378 17.0385 25.378 17.2081V19.9768C25.378 20.1785 25.2215 20.3393 25.0315 20.3393C25.0092 20.3393 24.9896 20.3364 24.97 20.3335L8.71029 18.8103C8.63205 18.8044 8.56219 18.7693 8.5091 18.7196Z" fill="#84DE31"/>
</g>
<defs>
<clipPath id="clip0_4359_2360">
<rect width="37.5637" height="35.4768" fill="white" transform="translate(0.217773 0.261719)"/>
</clipPath>
</defs>
</svg>
